%TF.GenerationSoftware,KiCad,Pcbnew,7.0.1*%
%TF.CreationDate,2023-03-29T13:12:42+01:00*%
%TF.ProjectId,LedBoard,4c656442-6f61-4726-942e-6b696361645f,rev?*%
%TF.SameCoordinates,Original*%
%TF.FileFunction,Paste,Top*%
%TF.FilePolarity,Positive*%
%FSLAX46Y46*%
G04 Gerber Fmt 4.6, Leading zero omitted, Abs format (unit mm)*
G04 Created by KiCad (PCBNEW 7.0.1) date 2023-03-29 13:12:42*
%MOMM*%
%LPD*%
G01*
G04 APERTURE LIST*
G04 Aperture macros list*
%AMRoundRect*
0 Rectangle with rounded corners*
0 $1 Rounding radius*
0 $2 $3 $4 $5 $6 $7 $8 $9 X,Y pos of 4 corners*
0 Add a 4 corners polygon primitive as box body*
4,1,4,$2,$3,$4,$5,$6,$7,$8,$9,$2,$3,0*
0 Add four circle primitives for the rounded corners*
1,1,$1+$1,$2,$3*
1,1,$1+$1,$4,$5*
1,1,$1+$1,$6,$7*
1,1,$1+$1,$8,$9*
0 Add four rect primitives between the rounded corners*
20,1,$1+$1,$2,$3,$4,$5,0*
20,1,$1+$1,$4,$5,$6,$7,0*
20,1,$1+$1,$6,$7,$8,$9,0*
20,1,$1+$1,$8,$9,$2,$3,0*%
G04 Aperture macros list end*
%ADD10R,0.825000X0.600000*%
%ADD11R,0.625000X0.600000*%
%ADD12R,1.245000X2.200000*%
%ADD13R,0.850000X2.200000*%
%ADD14R,0.800000X1.000000*%
%ADD15R,1.500000X0.700000*%
%ADD16R,2.350000X3.500000*%
%ADD17RoundRect,0.250000X0.250000X0.475000X-0.250000X0.475000X-0.250000X-0.475000X0.250000X-0.475000X0*%
%ADD18RoundRect,0.250000X0.512652X0.159099X0.159099X0.512652X-0.512652X-0.159099X-0.159099X-0.512652X0*%
%ADD19RoundRect,0.150000X0.256326X0.468458X-0.468458X-0.256326X-0.256326X-0.468458X0.468458X0.256326X0*%
%ADD20RoundRect,0.250000X-0.751301X1.263953X-1.263953X0.751301X0.751301X-1.263953X1.263953X-0.751301X0*%
%ADD21RoundRect,0.250000X0.503814X0.132583X0.132583X0.503814X-0.503814X-0.132583X-0.132583X-0.503814X0*%
%ADD22RoundRect,0.250000X0.159099X-0.512652X0.512652X-0.159099X-0.159099X0.512652X-0.512652X0.159099X0*%
G04 APERTURE END LIST*
D10*
%TO.C,LED4*%
X91025000Y-36300000D03*
D11*
X92225000Y-36300000D03*
D10*
X93425000Y-36300000D03*
D12*
X93521000Y-34375000D03*
D13*
X92224000Y-34375000D03*
D12*
X90927000Y-34375000D03*
%TD*%
D10*
%TO.C,LED3*%
X93423000Y-37700000D03*
D11*
X92223000Y-37700000D03*
D10*
X91023000Y-37700000D03*
D12*
X90927000Y-39625000D03*
D13*
X92224000Y-39625000D03*
D12*
X93521000Y-39625000D03*
%TD*%
D10*
%TO.C,LED2*%
X88973000Y-37700000D03*
D11*
X87773000Y-37700000D03*
D10*
X86573000Y-37700000D03*
D12*
X86477000Y-39625000D03*
D13*
X87774000Y-39625000D03*
D12*
X89071000Y-39625000D03*
%TD*%
D10*
%TO.C,LED1*%
X86575000Y-36300000D03*
D11*
X87775000Y-36300000D03*
D10*
X88975000Y-36300000D03*
D12*
X89071000Y-34375000D03*
D13*
X87774000Y-34375000D03*
D12*
X86477000Y-34375000D03*
%TD*%
D14*
%TO.C,SW1*%
X73255000Y-33350000D03*
X71045000Y-33350000D03*
X73255000Y-40650000D03*
X71045000Y-40650000D03*
D15*
X73905000Y-34750000D03*
X73905000Y-37750000D03*
X73905000Y-39250000D03*
%TD*%
D16*
%TO.C,L1*%
X88575000Y-52000000D03*
X94625000Y-52000000D03*
%TD*%
D17*
%TO.C,C5*%
X90950000Y-45650000D03*
X89050000Y-45650000D03*
%TD*%
D18*
%TO.C,C4*%
X81521751Y-46821751D03*
X80178249Y-45478249D03*
%TD*%
D19*
%TO.C,U1*%
X83952170Y-49234834D03*
X83280419Y-48563083D03*
X82608668Y-47891332D03*
X81000000Y-49500000D03*
X81671751Y-50171751D03*
X82343502Y-50843502D03*
%TD*%
D17*
%TO.C,C6*%
X90950000Y-43550000D03*
X89050000Y-43550000D03*
%TD*%
D20*
%TO.C,R2*%
X99144804Y-41955196D03*
X94955196Y-46144804D03*
%TD*%
D21*
%TO.C,R1*%
X80721320Y-52362652D03*
X79430850Y-51072182D03*
%TD*%
D22*
%TO.C,C1*%
X83904334Y-52114168D03*
X85247836Y-50770666D03*
%TD*%
D18*
%TO.C,C3*%
X80046751Y-48296751D03*
X78703249Y-46953249D03*
%TD*%
%TO.C,C2*%
X78571751Y-49771751D03*
X77228249Y-48428249D03*
%TD*%
M02*
