%TF.GenerationSoftware,KiCad,Pcbnew,7.0.1*%
%TF.CreationDate,2023-03-29T13:12:41+01:00*%
%TF.ProjectId,LedBoard,4c656442-6f61-4726-942e-6b696361645f,rev?*%
%TF.SameCoordinates,Original*%
%TF.FileFunction,Copper,L1,Top*%
%TF.FilePolarity,Positive*%
%FSLAX46Y46*%
G04 Gerber Fmt 4.6, Leading zero omitted, Abs format (unit mm)*
G04 Created by KiCad (PCBNEW 7.0.1) date 2023-03-29 13:12:41*
%MOMM*%
%LPD*%
G01*
G04 APERTURE LIST*
G04 Aperture macros list*
%AMRoundRect*
0 Rectangle with rounded corners*
0 $1 Rounding radius*
0 $2 $3 $4 $5 $6 $7 $8 $9 X,Y pos of 4 corners*
0 Add a 4 corners polygon primitive as box body*
4,1,4,$2,$3,$4,$5,$6,$7,$8,$9,$2,$3,0*
0 Add four circle primitives for the rounded corners*
1,1,$1+$1,$2,$3*
1,1,$1+$1,$4,$5*
1,1,$1+$1,$6,$7*
1,1,$1+$1,$8,$9*
0 Add four rect primitives between the rounded corners*
20,1,$1+$1,$2,$3,$4,$5,0*
20,1,$1+$1,$4,$5,$6,$7,0*
20,1,$1+$1,$6,$7,$8,$9,0*
20,1,$1+$1,$8,$9,$2,$3,0*%
G04 Aperture macros list end*
%TA.AperFunction,SMDPad,CuDef*%
%ADD10R,0.825000X0.600000*%
%TD*%
%TA.AperFunction,SMDPad,CuDef*%
%ADD11R,0.625000X0.600000*%
%TD*%
%TA.AperFunction,SMDPad,CuDef*%
%ADD12R,1.245000X2.200000*%
%TD*%
%TA.AperFunction,SMDPad,CuDef*%
%ADD13R,0.850000X2.200000*%
%TD*%
%TA.AperFunction,ComponentPad*%
%ADD14C,3.800000*%
%TD*%
%TA.AperFunction,SMDPad,CuDef*%
%ADD15R,0.800000X1.000000*%
%TD*%
%TA.AperFunction,SMDPad,CuDef*%
%ADD16R,1.500000X0.700000*%
%TD*%
%TA.AperFunction,SMDPad,CuDef*%
%ADD17R,2.350000X3.500000*%
%TD*%
%TA.AperFunction,SMDPad,CuDef*%
%ADD18RoundRect,0.250000X0.250000X0.475000X-0.250000X0.475000X-0.250000X-0.475000X0.250000X-0.475000X0*%
%TD*%
%TA.AperFunction,SMDPad,CuDef*%
%ADD19RoundRect,0.250000X0.512652X0.159099X0.159099X0.512652X-0.512652X-0.159099X-0.159099X-0.512652X0*%
%TD*%
%TA.AperFunction,SMDPad,CuDef*%
%ADD20RoundRect,0.150000X0.256326X0.468458X-0.468458X-0.256326X-0.256326X-0.468458X0.468458X0.256326X0*%
%TD*%
%TA.AperFunction,SMDPad,CuDef*%
%ADD21RoundRect,0.250000X-0.751301X1.263953X-1.263953X0.751301X0.751301X-1.263953X1.263953X-0.751301X0*%
%TD*%
%TA.AperFunction,SMDPad,CuDef*%
%ADD22RoundRect,0.250000X0.503814X0.132583X0.132583X0.503814X-0.503814X-0.132583X-0.132583X-0.503814X0*%
%TD*%
%TA.AperFunction,ComponentPad*%
%ADD23O,3.900000X3.900000*%
%TD*%
%TA.AperFunction,ComponentPad*%
%ADD24C,3.900000*%
%TD*%
%TA.AperFunction,SMDPad,CuDef*%
%ADD25RoundRect,0.250000X0.159099X-0.512652X0.512652X-0.159099X-0.159099X0.512652X-0.512652X0.159099X0*%
%TD*%
%TA.AperFunction,Conductor*%
%ADD26C,0.600000*%
%TD*%
%TA.AperFunction,Conductor*%
%ADD27C,1.000000*%
%TD*%
%TA.AperFunction,Conductor*%
%ADD28C,0.150000*%
%TD*%
%TA.AperFunction,Conductor*%
%ADD29C,0.400000*%
%TD*%
%TA.AperFunction,Conductor*%
%ADD30C,0.300000*%
%TD*%
%TA.AperFunction,Conductor*%
%ADD31C,0.800000*%
%TD*%
G04 APERTURE END LIST*
D10*
%TO.P,LED4,1,Anode*%
%TO.N,Net-(C5-Pad1)*%
X91025000Y-36300000D03*
D11*
%TO.P,LED4,2,Anode*%
X92225000Y-36300000D03*
D10*
%TO.P,LED4,3,Anode*%
X93425000Y-36300000D03*
D12*
%TO.P,LED4,4,Cathode*%
%TO.N,Net-(U1-VFB)*%
X93521000Y-34375000D03*
D13*
%TO.P,LED4,5,Cathode*%
X92224000Y-34375000D03*
D12*
%TO.P,LED4,6,Cathode*%
X90927000Y-34375000D03*
%TD*%
D10*
%TO.P,LED3,1,Anode*%
%TO.N,Net-(C5-Pad1)*%
X93423000Y-37700000D03*
D11*
%TO.P,LED3,2,Anode*%
X92223000Y-37700000D03*
D10*
%TO.P,LED3,3,Anode*%
X91023000Y-37700000D03*
D12*
%TO.P,LED3,4,Cathode*%
%TO.N,Net-(U1-VFB)*%
X90927000Y-39625000D03*
D13*
%TO.P,LED3,5,Cathode*%
X92224000Y-39625000D03*
D12*
%TO.P,LED3,6,Cathode*%
X93521000Y-39625000D03*
%TD*%
D10*
%TO.P,LED2,1,Anode*%
%TO.N,Net-(C5-Pad1)*%
X88973000Y-37700000D03*
D11*
%TO.P,LED2,2,Anode*%
X87773000Y-37700000D03*
D10*
%TO.P,LED2,3,Anode*%
X86573000Y-37700000D03*
D12*
%TO.P,LED2,4,Cathode*%
%TO.N,Net-(U1-VFB)*%
X86477000Y-39625000D03*
D13*
%TO.P,LED2,5,Cathode*%
X87774000Y-39625000D03*
D12*
%TO.P,LED2,6,Cathode*%
X89071000Y-39625000D03*
%TD*%
D10*
%TO.P,LED1,1,Anode*%
%TO.N,Net-(C5-Pad1)*%
X86575000Y-36300000D03*
D11*
%TO.P,LED1,2,Anode*%
X87775000Y-36300000D03*
D10*
%TO.P,LED1,3,Anode*%
X88975000Y-36300000D03*
D12*
%TO.P,LED1,4,Cathode*%
%TO.N,Net-(U1-VFB)*%
X89071000Y-34375000D03*
D13*
%TO.P,LED1,5,Cathode*%
X87774000Y-34375000D03*
D12*
%TO.P,LED1,6,Cathode*%
X86477000Y-34375000D03*
%TD*%
D14*
%TO.P,H1,1,1*%
%TO.N,GND*%
X80000000Y-31000000D03*
%TD*%
D15*
%TO.P,SW1,*%
%TO.N,*%
X73255000Y-33350000D03*
X71045000Y-33350000D03*
X73255000Y-40650000D03*
X71045000Y-40650000D03*
D16*
%TO.P,SW1,1,A*%
%TO.N,Net-(SW1-A)*%
X73905000Y-34750000D03*
%TO.P,SW1,2,B*%
%TO.N,+12V*%
X73905000Y-37750000D03*
%TO.P,SW1,3,C*%
%TO.N,unconnected-(SW1-C-Pad3)*%
X73905000Y-39250000D03*
%TD*%
D17*
%TO.P,L1,1*%
%TO.N,Net-(U1-SW)*%
X88575000Y-52000000D03*
%TO.P,L1,2*%
%TO.N,Net-(C5-Pad1)*%
X94625000Y-52000000D03*
%TD*%
D18*
%TO.P,C5,1*%
%TO.N,Net-(C5-Pad1)*%
X90950000Y-45650000D03*
%TO.P,C5,2*%
%TO.N,GND*%
X89050000Y-45650000D03*
%TD*%
D19*
%TO.P,C4,1*%
%TO.N,Net-(SW1-A)*%
X81521751Y-46821751D03*
%TO.P,C4,2*%
%TO.N,GND*%
X80178249Y-45478249D03*
%TD*%
D20*
%TO.P,U1,1,GND*%
%TO.N,GND*%
X83952170Y-49234834D03*
%TO.P,U1,2,SW*%
%TO.N,Net-(U1-SW)*%
X83280419Y-48563083D03*
%TO.P,U1,3,VIN*%
%TO.N,Net-(SW1-A)*%
X82608668Y-47891332D03*
%TO.P,U1,4,VFB*%
%TO.N,Net-(U1-VFB)*%
X81000000Y-49500000D03*
%TO.P,U1,5,EN*%
%TO.N,Net-(U1-EN)*%
X81671751Y-50171751D03*
%TO.P,U1,6,VBST*%
%TO.N,Net-(U1-VBST)*%
X82343502Y-50843502D03*
%TD*%
D18*
%TO.P,C6,1*%
%TO.N,Net-(C5-Pad1)*%
X90950000Y-43550000D03*
%TO.P,C6,2*%
%TO.N,GND*%
X89050000Y-43550000D03*
%TD*%
D21*
%TO.P,R2,1*%
%TO.N,Net-(U1-VFB)*%
X99144804Y-41955196D03*
%TO.P,R2,2*%
%TO.N,GND*%
X94955196Y-46144804D03*
%TD*%
D22*
%TO.P,R1,1*%
%TO.N,Net-(U1-EN)*%
X80721320Y-52362652D03*
%TO.P,R1,2*%
%TO.N,Net-(SW1-A)*%
X79430850Y-51072182D03*
%TD*%
D23*
%TO.P,J1,1,Pin_1*%
%TO.N,+12V*%
X86100000Y-22200000D03*
D24*
%TO.P,J1,2,Pin_2*%
%TO.N,GND*%
X93900000Y-22200000D03*
%TD*%
D25*
%TO.P,C1,1*%
%TO.N,Net-(U1-VBST)*%
X83904334Y-52114168D03*
%TO.P,C1,2*%
%TO.N,Net-(U1-SW)*%
X85247836Y-50770666D03*
%TD*%
D19*
%TO.P,C3,1*%
%TO.N,Net-(SW1-A)*%
X80046751Y-48296751D03*
%TO.P,C3,2*%
%TO.N,GND*%
X78703249Y-46953249D03*
%TD*%
%TO.P,C2,1*%
%TO.N,Net-(SW1-A)*%
X78571751Y-49771751D03*
%TO.P,C2,2*%
%TO.N,GND*%
X77228249Y-48428249D03*
%TD*%
D14*
%TO.P,H2,1,1*%
%TO.N,GND*%
X100000000Y-31000000D03*
%TD*%
D26*
%TO.N,Net-(U1-VFB)*%
X93521000Y-32429000D02*
X94100000Y-31850000D01*
X93521000Y-34375000D02*
X93521000Y-32429000D01*
X94100000Y-31850000D02*
X94400000Y-31850000D01*
X92475000Y-31850000D02*
X94100000Y-31850000D01*
X92224000Y-32101000D02*
X92475000Y-31850000D01*
X92224000Y-34375000D02*
X92224000Y-32101000D01*
X91325000Y-31850000D02*
X92475000Y-31850000D01*
X90927000Y-34375000D02*
X90927000Y-32248000D01*
X90927000Y-32248000D02*
X91325000Y-31850000D01*
X89675000Y-31850000D02*
X91325000Y-31850000D01*
X89071000Y-34375000D02*
X89071000Y-32454000D01*
X89071000Y-32454000D02*
X89675000Y-31850000D01*
X88725000Y-31850000D02*
X89675000Y-31850000D01*
X87774000Y-32801000D02*
X88725000Y-31850000D01*
X87774000Y-34375000D02*
X87774000Y-32801000D01*
X86850000Y-31850000D02*
X88725000Y-31850000D01*
X89325000Y-41225000D02*
X91925000Y-41225000D01*
X91925000Y-41225000D02*
X92224000Y-41524000D01*
%TO.N,Net-(C5-Pad1)*%
X85575000Y-42150000D02*
X84875000Y-41450000D01*
X90950000Y-42600000D02*
X90500000Y-42150000D01*
X90500000Y-42150000D02*
X85575000Y-42150000D01*
X90950000Y-43550000D02*
X90950000Y-42600000D01*
%TO.N,Net-(U1-VFB)*%
X86900000Y-41225000D02*
X88075000Y-41225000D01*
X86477000Y-40802000D02*
X86900000Y-41225000D01*
X86477000Y-39625000D02*
X86477000Y-40802000D01*
X87774000Y-40924000D02*
X88075000Y-41225000D01*
X87774000Y-39625000D02*
X87774000Y-40924000D01*
X88075000Y-41225000D02*
X89325000Y-41225000D01*
X89071000Y-40971000D02*
X89325000Y-41225000D01*
X89071000Y-39625000D02*
X89071000Y-40971000D01*
X90927000Y-40227000D02*
X92550000Y-41850000D01*
X92550000Y-41850000D02*
X92700000Y-42000000D01*
X90927000Y-39625000D02*
X90927000Y-40227000D01*
X92224000Y-41524000D02*
X92550000Y-41850000D01*
X92700000Y-42000000D02*
X94575000Y-42000000D01*
X92224000Y-39625000D02*
X92224000Y-41524000D01*
X94575000Y-42000000D02*
X94619804Y-41955196D01*
X94619804Y-41955196D02*
X99144804Y-41955196D01*
X93521000Y-40946000D02*
X94575000Y-42000000D01*
X93521000Y-39625000D02*
X93521000Y-40946000D01*
X96975000Y-39785392D02*
X99144804Y-41955196D01*
X94400000Y-31850000D02*
X96975000Y-34425000D01*
X96975000Y-34425000D02*
X96975000Y-39785392D01*
X86477000Y-32223000D02*
X86850000Y-31850000D01*
X86477000Y-34375000D02*
X86477000Y-32223000D01*
%TO.N,Net-(C5-Pad1)*%
X84575000Y-38904500D02*
X84575000Y-41150000D01*
X85779500Y-37700000D02*
X84575000Y-38904500D01*
X86573000Y-37700000D02*
X85779500Y-37700000D01*
X84875000Y-41450000D02*
X83400000Y-39975000D01*
X84575000Y-41150000D02*
X84875000Y-41450000D01*
X93423000Y-37700000D02*
X86573000Y-37700000D01*
X83400000Y-37450000D02*
X84550000Y-36300000D01*
X84550000Y-36300000D02*
X93425000Y-36300000D01*
X83400000Y-39975000D02*
X83400000Y-37450000D01*
D27*
%TO.N,Net-(U1-VFB)*%
X90950000Y-39648000D02*
X90927000Y-39625000D01*
D26*
%TO.N,Net-(C5-Pad1)*%
X94625000Y-52000000D02*
X94625000Y-48700000D01*
X90950000Y-43550000D02*
X90950000Y-45650000D01*
X94625000Y-48700000D02*
X90950000Y-48700000D01*
X90950000Y-48700000D02*
X90950000Y-45650000D01*
%TO.N,Net-(U1-VBST)*%
X83614168Y-52114168D02*
X82343502Y-50843502D01*
D28*
X83904334Y-52114168D02*
X83614168Y-52114168D01*
D29*
%TO.N,Net-(U1-SW)*%
X82775000Y-49625000D02*
X83920666Y-50770666D01*
X82775000Y-49068502D02*
X82775000Y-49625000D01*
X83280419Y-48563083D02*
X82775000Y-49068502D01*
X83920666Y-50770666D02*
X85247836Y-50770666D01*
D26*
X88575000Y-52000000D02*
X86477170Y-52000000D01*
X86477170Y-52000000D02*
X85247836Y-50770666D01*
D29*
%TO.N,Net-(SW1-A)*%
X78571751Y-49771751D02*
X79430850Y-50630850D01*
D26*
X75600000Y-36445000D02*
X73905000Y-34750000D01*
D29*
X79430850Y-50630850D02*
X79430850Y-51072182D01*
D26*
X77918502Y-50425000D02*
X77125000Y-50425000D01*
D29*
X81539087Y-46821751D02*
X81521751Y-46821751D01*
D26*
X78571751Y-49771751D02*
X77918502Y-50425000D01*
D29*
X78571751Y-49771751D02*
X81521751Y-46821751D01*
X82608668Y-47891332D02*
X81539087Y-46821751D01*
D26*
X75600000Y-48900000D02*
X75600000Y-36445000D01*
X77125000Y-50425000D02*
X75600000Y-48900000D01*
D29*
%TO.N,GND*%
X83952170Y-49234834D02*
X83952170Y-49222830D01*
X83952170Y-49222830D02*
X85250000Y-47925000D01*
D26*
%TO.N,Net-(U1-VFB)*%
X96750000Y-54500000D02*
X101200000Y-50050000D01*
X101200000Y-44010392D02*
X99144804Y-41955196D01*
D30*
X80600000Y-51200000D02*
X80600000Y-49900000D01*
D26*
X101200000Y-50050000D02*
X101200000Y-44010392D01*
X83575000Y-53575000D02*
X84500000Y-54500000D01*
X81275000Y-53575000D02*
X83575000Y-53575000D01*
D30*
X80275000Y-53575000D02*
X79475000Y-52775000D01*
X79475000Y-52325000D02*
X80600000Y-51200000D01*
X79475000Y-52775000D02*
X79475000Y-52325000D01*
X80600000Y-49900000D02*
X81000000Y-49500000D01*
D26*
X84500000Y-54500000D02*
X96750000Y-54500000D01*
D30*
X81275000Y-53575000D02*
X80275000Y-53575000D01*
D29*
%TO.N,+12V*%
X72250000Y-32755000D02*
X72250000Y-33550000D01*
D31*
X79125000Y-25300000D02*
X72250000Y-32175000D01*
D29*
X73905000Y-37305000D02*
X73905000Y-37750000D01*
X70825833Y-36175833D02*
X71650000Y-37000000D01*
X73600000Y-37000000D02*
X73905000Y-37305000D01*
D31*
X72250000Y-32175000D02*
X72250000Y-32755000D01*
D29*
X70825833Y-34974167D02*
X70825833Y-36175833D01*
D31*
X83000000Y-25300000D02*
X79125000Y-25300000D01*
D29*
X72250000Y-33550000D02*
X70825833Y-34974167D01*
X71650000Y-37000000D02*
X73600000Y-37000000D01*
D31*
X86100000Y-22200000D02*
X83000000Y-25300000D01*
D29*
%TO.N,Net-(U1-EN)*%
X81200000Y-50643502D02*
X81200000Y-51883972D01*
X81671751Y-50171751D02*
X81200000Y-50643502D01*
X81200000Y-51883972D02*
X80721320Y-52362652D01*
%TD*%
%TA.AperFunction,Conductor*%
%TO.N,GND*%
G36*
X90873213Y-17520098D02*
G01*
X90876467Y-17520244D01*
X91746266Y-17578887D01*
X91749543Y-17579181D01*
X92615853Y-17676791D01*
X92619109Y-17677232D01*
X93480168Y-17813611D01*
X93483356Y-17814189D01*
X94337443Y-17989064D01*
X94340641Y-17989794D01*
X94918004Y-18135277D01*
X95185965Y-18202798D01*
X95189166Y-18203681D01*
X95441986Y-18279599D01*
X96024119Y-18454405D01*
X96027235Y-18455418D01*
X96850078Y-18743343D01*
X96853130Y-18744488D01*
X97662304Y-19069071D01*
X97665291Y-19070348D01*
X98459022Y-19430879D01*
X98461980Y-19432304D01*
X99238721Y-19828073D01*
X99241633Y-19829639D01*
X99999849Y-20259866D01*
X100002677Y-20261556D01*
X100112625Y-20330641D01*
X100740812Y-20725357D01*
X100743584Y-20727187D01*
X100786738Y-20757084D01*
X101460166Y-21223635D01*
X101462821Y-21225564D01*
X102113538Y-21721022D01*
X102156414Y-21753668D01*
X102159007Y-21755735D01*
X102828218Y-22314433D01*
X102830683Y-22316586D01*
X103089935Y-22553553D01*
X103474154Y-22904745D01*
X103476554Y-22907040D01*
X104092959Y-23523445D01*
X104095254Y-23525845D01*
X104683410Y-24169313D01*
X104685569Y-24171784D01*
X104793029Y-24300500D01*
X105244261Y-24840989D01*
X105246331Y-24843585D01*
X105774423Y-25537162D01*
X105776375Y-25539849D01*
X106272812Y-26256415D01*
X106274642Y-26259187D01*
X106738436Y-26997311D01*
X106740139Y-27000161D01*
X107170353Y-27758353D01*
X107171926Y-27761278D01*
X107567695Y-28538019D01*
X107569128Y-28540996D01*
X107929636Y-29334675D01*
X107930937Y-29337717D01*
X108255500Y-30146841D01*
X108256666Y-30149950D01*
X108544574Y-30972743D01*
X108545601Y-30975902D01*
X108796318Y-31810833D01*
X108797201Y-31814034D01*
X109010200Y-32659339D01*
X109010939Y-32662576D01*
X109185802Y-33516603D01*
X109186394Y-33519867D01*
X109208109Y-33656966D01*
X109322764Y-34380873D01*
X109323210Y-34384164D01*
X109420816Y-35250441D01*
X109421113Y-35253748D01*
X109479753Y-36123500D01*
X109479902Y-36126818D01*
X109499462Y-36998339D01*
X109499462Y-37001659D01*
X109479902Y-37873181D01*
X109479753Y-37876499D01*
X109421113Y-38746251D01*
X109420816Y-38749558D01*
X109323210Y-39615835D01*
X109322764Y-39619126D01*
X109186395Y-40480128D01*
X109185802Y-40483396D01*
X109010939Y-41337423D01*
X109010200Y-41340660D01*
X108797201Y-42185965D01*
X108796318Y-42189166D01*
X108545601Y-43024097D01*
X108544574Y-43027256D01*
X108256666Y-43850049D01*
X108255500Y-43853158D01*
X107930942Y-44662271D01*
X107929636Y-44665324D01*
X107569136Y-45458988D01*
X107567695Y-45461980D01*
X107171926Y-46238721D01*
X107170353Y-46241646D01*
X106740139Y-46999838D01*
X106738436Y-47002688D01*
X106274642Y-47740812D01*
X106272812Y-47743584D01*
X105776375Y-48460150D01*
X105774423Y-48462837D01*
X105246331Y-49156414D01*
X105244261Y-49159010D01*
X104685582Y-49828200D01*
X104683397Y-49830701D01*
X104095254Y-50474154D01*
X104092959Y-50476554D01*
X103476554Y-51092959D01*
X103474154Y-51095254D01*
X102830701Y-51683397D01*
X102828200Y-51685582D01*
X102159010Y-52244261D01*
X102156414Y-52246331D01*
X101462837Y-52774423D01*
X101460150Y-52776375D01*
X100743584Y-53272812D01*
X100740812Y-53274642D01*
X100002688Y-53738436D01*
X99999838Y-53740139D01*
X99241646Y-54170353D01*
X99238721Y-54171926D01*
X98461980Y-54567695D01*
X98458988Y-54569136D01*
X97665324Y-54929636D01*
X97662271Y-54930942D01*
X96853158Y-55255500D01*
X96850049Y-55256666D01*
X96027256Y-55544574D01*
X96024097Y-55545601D01*
X95189166Y-55796318D01*
X95185965Y-55797201D01*
X94340660Y-56010200D01*
X94337423Y-56010939D01*
X93483396Y-56185802D01*
X93480128Y-56186395D01*
X92619126Y-56322764D01*
X92615835Y-56323210D01*
X91749558Y-56420816D01*
X91746251Y-56421113D01*
X90876499Y-56479753D01*
X90873181Y-56479902D01*
X90001660Y-56499462D01*
X89998340Y-56499462D01*
X89126818Y-56479902D01*
X89123500Y-56479753D01*
X88253748Y-56421113D01*
X88250441Y-56420816D01*
X87384164Y-56323210D01*
X87380873Y-56322764D01*
X86662411Y-56208971D01*
X86519867Y-56186394D01*
X86516608Y-56185803D01*
X86265434Y-56134374D01*
X85662576Y-56010939D01*
X85659339Y-56010200D01*
X84814034Y-55797201D01*
X84810833Y-55796318D01*
X83975902Y-55545601D01*
X83972743Y-55544574D01*
X83149950Y-55256666D01*
X83146841Y-55255500D01*
X82337717Y-54930937D01*
X82334687Y-54929641D01*
X81540996Y-54569128D01*
X81538019Y-54567695D01*
X80761278Y-54171926D01*
X80758353Y-54170353D01*
X80482558Y-54013861D01*
X80450871Y-53978202D01*
X80447528Y-53930615D01*
X80473920Y-53890876D01*
X80519078Y-53875500D01*
X80902793Y-53875500D01*
X80934900Y-53882828D01*
X80960649Y-53903362D01*
X80965122Y-53908972D01*
X81077324Y-53985471D01*
X81077326Y-53985471D01*
X81077327Y-53985472D01*
X81207098Y-54025500D01*
X83357744Y-54025500D01*
X83386063Y-54031133D01*
X83410070Y-54047174D01*
X84160622Y-54797725D01*
X84166144Y-54803904D01*
X84190121Y-54833970D01*
X84190123Y-54833972D01*
X84238137Y-54866708D01*
X84240393Y-54868309D01*
X84287842Y-54903328D01*
X84301472Y-54910208D01*
X84302326Y-54910471D01*
X84302327Y-54910472D01*
X84347850Y-54924513D01*
X84357867Y-54927603D01*
X84360486Y-54928465D01*
X84380156Y-54935348D01*
X84416147Y-54947942D01*
X84431198Y-54950500D01*
X84432098Y-54950500D01*
X84490180Y-54950500D01*
X84492947Y-54950552D01*
X84500102Y-54950819D01*
X84551010Y-54952725D01*
X84551011Y-54952724D01*
X84551902Y-54952758D01*
X84569056Y-54950500D01*
X96720541Y-54950500D01*
X96728826Y-54950965D01*
X96767034Y-54955270D01*
X96767034Y-54955269D01*
X96767035Y-54955270D01*
X96824137Y-54944464D01*
X96826829Y-54944007D01*
X96884287Y-54935348D01*
X96884287Y-54935347D01*
X96885181Y-54935213D01*
X96899673Y-54930444D01*
X96900468Y-54930023D01*
X96900472Y-54930023D01*
X96951885Y-54902849D01*
X96954299Y-54901630D01*
X97006642Y-54876425D01*
X97006644Y-54876423D01*
X97007450Y-54876035D01*
X97019903Y-54867200D01*
X97020535Y-54866567D01*
X97020538Y-54866566D01*
X97061643Y-54825459D01*
X97063612Y-54823564D01*
X97088297Y-54800660D01*
X97106194Y-54784055D01*
X97106194Y-54784053D01*
X97106853Y-54783443D01*
X97117376Y-54769726D01*
X101497737Y-50389365D01*
X101503907Y-50383852D01*
X101533970Y-50359879D01*
X101566708Y-50311859D01*
X101568242Y-50309695D01*
X101602793Y-50262883D01*
X101602794Y-50262877D01*
X101603329Y-50262154D01*
X101610208Y-50248529D01*
X101614325Y-50235180D01*
X101627600Y-50192140D01*
X101628461Y-50189524D01*
X101638010Y-50162236D01*
X101647646Y-50134700D01*
X101647646Y-50134698D01*
X101647942Y-50133853D01*
X101650500Y-50118803D01*
X101650500Y-50059804D01*
X101650552Y-50057037D01*
X101651732Y-50025500D01*
X101652724Y-49998990D01*
X101652723Y-49998988D01*
X101652757Y-49998093D01*
X101650500Y-49980949D01*
X101650500Y-44039851D01*
X101650965Y-44031566D01*
X101655270Y-43993357D01*
X101644469Y-43936277D01*
X101644005Y-43933546D01*
X101635213Y-43875212D01*
X101630444Y-43860716D01*
X101602875Y-43808555D01*
X101601627Y-43806084D01*
X101598697Y-43800000D01*
X101576425Y-43753750D01*
X101576423Y-43753748D01*
X101576035Y-43752942D01*
X101567197Y-43740485D01*
X101525484Y-43698772D01*
X101523564Y-43696779D01*
X101483445Y-43653541D01*
X101469725Y-43643013D01*
X101351343Y-43524631D01*
X100789180Y-42962469D01*
X100769552Y-42927419D01*
X100771129Y-42887277D01*
X100809257Y-42769930D01*
X100809257Y-42643063D01*
X100787988Y-42577603D01*
X100770054Y-42522407D01*
X100728214Y-42464820D01*
X100714242Y-42445589D01*
X98654412Y-40385760D01*
X98654411Y-40385759D01*
X98577593Y-40329946D01*
X98577591Y-40329945D01*
X98456937Y-40290743D01*
X98456936Y-40290743D01*
X98330070Y-40290743D01*
X98330068Y-40290743D01*
X98212721Y-40328870D01*
X98172580Y-40330447D01*
X98137529Y-40310818D01*
X97447174Y-39620463D01*
X97431133Y-39596456D01*
X97425500Y-39568137D01*
X97425500Y-34454458D01*
X97425965Y-34446174D01*
X97426010Y-34445772D01*
X97430270Y-34407965D01*
X97419456Y-34350810D01*
X97419014Y-34348213D01*
X97410348Y-34290713D01*
X97410346Y-34290709D01*
X97410212Y-34289819D01*
X97405441Y-34275317D01*
X97377863Y-34223140D01*
X97376615Y-34220667D01*
X97351039Y-34167557D01*
X97342199Y-34155095D01*
X97300484Y-34113380D01*
X97298564Y-34111387D01*
X97259055Y-34068806D01*
X97259054Y-34068805D01*
X97258445Y-34068149D01*
X97244725Y-34057621D01*
X96054091Y-32866987D01*
X98486565Y-32866987D01*
X98711468Y-33030390D01*
X98976108Y-33175877D01*
X99256897Y-33287048D01*
X99549397Y-33362150D01*
X99849001Y-33400000D01*
X100150999Y-33400000D01*
X100450602Y-33362150D01*
X100743102Y-33287048D01*
X101023891Y-33175877D01*
X101288531Y-33030390D01*
X101513433Y-32866987D01*
X100000000Y-31353553D01*
X98486565Y-32866987D01*
X96054091Y-32866987D01*
X94739380Y-31552277D01*
X94733851Y-31546090D01*
X94709879Y-31516030D01*
X94661878Y-31483303D01*
X94659623Y-31481703D01*
X94612161Y-31446675D01*
X94598522Y-31439789D01*
X94542138Y-31422397D01*
X94539510Y-31421533D01*
X94535060Y-31419976D01*
X94495105Y-31405995D01*
X94483857Y-31402059D01*
X94468796Y-31399500D01*
X94467902Y-31399500D01*
X94409803Y-31399500D01*
X94407036Y-31399448D01*
X94348093Y-31397242D01*
X94330949Y-31399500D01*
X94167902Y-31399500D01*
X94129458Y-31399500D01*
X94121174Y-31399035D01*
X94105260Y-31397242D01*
X94082965Y-31394730D01*
X94082964Y-31394730D01*
X94071887Y-31396825D01*
X94064570Y-31398210D01*
X94050816Y-31399500D01*
X92542902Y-31399500D01*
X92504458Y-31399500D01*
X92496174Y-31399035D01*
X92480260Y-31397242D01*
X92457965Y-31394730D01*
X92457964Y-31394730D01*
X92446887Y-31396825D01*
X92439570Y-31398210D01*
X92425816Y-31399500D01*
X91392902Y-31399500D01*
X91354458Y-31399500D01*
X91346174Y-31399035D01*
X91330260Y-31397242D01*
X91307965Y-31394730D01*
X91307964Y-31394730D01*
X91289572Y-31398210D01*
X91275816Y-31399500D01*
X89742902Y-31399500D01*
X89704458Y-31399500D01*
X89696174Y-31399035D01*
X89680260Y-31397242D01*
X89657965Y-31394730D01*
X89657964Y-31394730D01*
X89639572Y-31398210D01*
X89625816Y-31399500D01*
X88792902Y-31399500D01*
X88754458Y-31399500D01*
X88746174Y-31399035D01*
X88730260Y-31397242D01*
X88707965Y-31394730D01*
X88707964Y-31394730D01*
X88689572Y-31398210D01*
X88675816Y-31399500D01*
X86879458Y-31399500D01*
X86871174Y-31399035D01*
X86870008Y-31398903D01*
X86832965Y-31394730D01*
X86832963Y-31394730D01*
X86775864Y-31405532D01*
X86773140Y-31405995D01*
X86714831Y-31414785D01*
X86700309Y-31419563D01*
X86648139Y-31447135D01*
X86645671Y-31448381D01*
X86592556Y-31473961D01*
X86580088Y-31482808D01*
X86538378Y-31524517D01*
X86536387Y-31526434D01*
X86493152Y-31566550D01*
X86482621Y-31580274D01*
X86179276Y-31883619D01*
X86173091Y-31889147D01*
X86143027Y-31913123D01*
X86110297Y-31961128D01*
X86108698Y-31963383D01*
X86073675Y-32010839D01*
X86066789Y-32024477D01*
X86049406Y-32080836D01*
X86048541Y-32083464D01*
X86029060Y-32139139D01*
X86026500Y-32154211D01*
X86026500Y-32213197D01*
X86026448Y-32215964D01*
X86024242Y-32274906D01*
X86026500Y-32292051D01*
X86026500Y-33050500D01*
X86016586Y-33087500D01*
X85989500Y-33114586D01*
X85952500Y-33124500D01*
X85839680Y-33124500D01*
X85795778Y-33133233D01*
X85745996Y-33166496D01*
X85712733Y-33216278D01*
X85704000Y-33260180D01*
X85704000Y-35489820D01*
X85712733Y-35533722D01*
X85745996Y-35583504D01*
X85795778Y-35616767D01*
X85839680Y-35625500D01*
X87114319Y-35625500D01*
X87114320Y-35625500D01*
X87158222Y-35616767D01*
X87183140Y-35600117D01*
X87224250Y-35587647D01*
X87265359Y-35600117D01*
X87290278Y-35616767D01*
X87334180Y-35625500D01*
X88213819Y-35625500D01*
X88213820Y-35625500D01*
X88257722Y-35616767D01*
X88282640Y-35600117D01*
X88323750Y-35587647D01*
X88364859Y-35600117D01*
X88389778Y-35616767D01*
X88433680Y-35625500D01*
X89708319Y-35625500D01*
X89708320Y-35625500D01*
X89752222Y-35616767D01*
X89802004Y-35583504D01*
X89835267Y-35533722D01*
X89844000Y-35489820D01*
X89844000Y-33260180D01*
X89835267Y-33216278D01*
X89802004Y-33166496D01*
X89752222Y-33133233D01*
X89708320Y-33124500D01*
X89708319Y-33124500D01*
X89595500Y-33124500D01*
X89558500Y-33114586D01*
X89531414Y-33087500D01*
X89521500Y-33050500D01*
X89521500Y-32671256D01*
X89527133Y-32642937D01*
X89543174Y-32618930D01*
X89839929Y-32322174D01*
X89863936Y-32306133D01*
X89892255Y-32300500D01*
X90402500Y-32300500D01*
X90439500Y-32310414D01*
X90466586Y-32337500D01*
X90476500Y-32374500D01*
X90476500Y-33050500D01*
X90466586Y-33087500D01*
X90439500Y-33114586D01*
X90402500Y-33124500D01*
X90289680Y-33124500D01*
X90245778Y-33133233D01*
X90195996Y-33166496D01*
X90162733Y-33216278D01*
X90154000Y-33260180D01*
X90154000Y-35489820D01*
X90162733Y-35533722D01*
X90195996Y-35583504D01*
X90245778Y-35616767D01*
X90289680Y-35625500D01*
X91564319Y-35625500D01*
X91564320Y-35625500D01*
X91608222Y-35616767D01*
X91633140Y-35600117D01*
X91674250Y-35587647D01*
X91715359Y-35600117D01*
X91740278Y-35616767D01*
X91784180Y-35625500D01*
X92663819Y-35625500D01*
X92663820Y-35625500D01*
X92707722Y-35616767D01*
X92732640Y-35600117D01*
X92773750Y-35587647D01*
X92814859Y-35600117D01*
X92839778Y-35616767D01*
X92883680Y-35625500D01*
X94158319Y-35625500D01*
X94158320Y-35625500D01*
X94202222Y-35616767D01*
X94252004Y-35583504D01*
X94285267Y-35533722D01*
X94294000Y-35489820D01*
X94294000Y-33260180D01*
X94285267Y-33216278D01*
X94252004Y-33166496D01*
X94202222Y-33133233D01*
X94158320Y-33124500D01*
X94158319Y-33124500D01*
X94045500Y-33124500D01*
X94008500Y-33114586D01*
X93981414Y-33087500D01*
X93971500Y-33050500D01*
X93971500Y-32646256D01*
X93977133Y-32617938D01*
X93993174Y-32593930D01*
X94125483Y-32461620D01*
X94197673Y-32389428D01*
X94230846Y-32370277D01*
X94269151Y-32370276D01*
X94302325Y-32389429D01*
X96502826Y-34589929D01*
X96518867Y-34613936D01*
X96524500Y-34642255D01*
X96524500Y-39755934D01*
X96524035Y-39764218D01*
X96519730Y-39802427D01*
X96530533Y-39859523D01*
X96530988Y-39862199D01*
X96534236Y-39883745D01*
X96539786Y-39920570D01*
X96544559Y-39935072D01*
X96544976Y-39935862D01*
X96544977Y-39935864D01*
X96554470Y-39953826D01*
X96572124Y-39987229D01*
X96573370Y-39989697D01*
X96598963Y-40042840D01*
X96607804Y-40055300D01*
X96649514Y-40097010D01*
X96651433Y-40099002D01*
X96685001Y-40135180D01*
X96691556Y-40142244D01*
X96705274Y-40152770D01*
X97500426Y-40947921D01*
X97520055Y-40982972D01*
X97518478Y-41023113D01*
X97480351Y-41140460D01*
X97480351Y-41267329D01*
X97521628Y-41394369D01*
X97532889Y-41424889D01*
X97525052Y-41464291D01*
X97497782Y-41493791D01*
X97459117Y-41504696D01*
X94747452Y-41504696D01*
X94719133Y-41499063D01*
X94695126Y-41483022D01*
X94469722Y-41257618D01*
X94192035Y-40979932D01*
X94171784Y-40942043D01*
X94175995Y-40899287D01*
X94203246Y-40866082D01*
X94252004Y-40833504D01*
X94285267Y-40783722D01*
X94294000Y-40739820D01*
X94294000Y-38510180D01*
X94285267Y-38466278D01*
X94252004Y-38416496D01*
X94202222Y-38383233D01*
X94158320Y-38374500D01*
X92883680Y-38374500D01*
X92839777Y-38383233D01*
X92839778Y-38383233D01*
X92814861Y-38399882D01*
X92773750Y-38412352D01*
X92732639Y-38399882D01*
X92707722Y-38383233D01*
X92663820Y-38374500D01*
X91784180Y-38374500D01*
X91740277Y-38383233D01*
X91740278Y-38383233D01*
X91715361Y-38399882D01*
X91674250Y-38412352D01*
X91633139Y-38399882D01*
X91608222Y-38383233D01*
X91564320Y-38374500D01*
X90289680Y-38374500D01*
X90245777Y-38383233D01*
X90245778Y-38383233D01*
X90195996Y-38416496D01*
X90162733Y-38466278D01*
X90154000Y-38510181D01*
X90154000Y-40700500D01*
X90144086Y-40737500D01*
X90117000Y-40764586D01*
X90080000Y-40774500D01*
X89918000Y-40774500D01*
X89881000Y-40764586D01*
X89853914Y-40737500D01*
X89844000Y-40700500D01*
X89844000Y-38510181D01*
X89844000Y-38510180D01*
X89835267Y-38466278D01*
X89802004Y-38416496D01*
X89752222Y-38383233D01*
X89708320Y-38374500D01*
X88433680Y-38374500D01*
X88389777Y-38383233D01*
X88389778Y-38383233D01*
X88364861Y-38399882D01*
X88323750Y-38412352D01*
X88282639Y-38399882D01*
X88257722Y-38383233D01*
X88213820Y-38374500D01*
X87334180Y-38374500D01*
X87290277Y-38383233D01*
X87290278Y-38383233D01*
X87265361Y-38399882D01*
X87224250Y-38412352D01*
X87183139Y-38399882D01*
X87158222Y-38383233D01*
X87114320Y-38374500D01*
X85920755Y-38374500D01*
X85879643Y-38362029D01*
X85852388Y-38328819D01*
X85848177Y-38286063D01*
X85868429Y-38248174D01*
X85944429Y-38172174D01*
X85968436Y-38156133D01*
X85996755Y-38150500D01*
X93850319Y-38150500D01*
X93850320Y-38150500D01*
X93894222Y-38141767D01*
X93944004Y-38108504D01*
X93977267Y-38058722D01*
X93986000Y-38014820D01*
X93986000Y-37385180D01*
X93977267Y-37341278D01*
X93944004Y-37291496D01*
X93894222Y-37258233D01*
X93850320Y-37249500D01*
X93850319Y-37249500D01*
X85808958Y-37249500D01*
X85800674Y-37249035D01*
X85798952Y-37248841D01*
X85762465Y-37244730D01*
X85762464Y-37244730D01*
X85705365Y-37255533D01*
X85702639Y-37255996D01*
X85644327Y-37264785D01*
X85629820Y-37269558D01*
X85577681Y-37297115D01*
X85575212Y-37298361D01*
X85522052Y-37323962D01*
X85509594Y-37332802D01*
X85467879Y-37374516D01*
X85465887Y-37376434D01*
X85422652Y-37416550D01*
X85412121Y-37430274D01*
X84277276Y-38565119D01*
X84271091Y-38570647D01*
X84241027Y-38594623D01*
X84208297Y-38642628D01*
X84206698Y-38644883D01*
X84171675Y-38692339D01*
X84164789Y-38705977D01*
X84152367Y-38746251D01*
X84148672Y-38758233D01*
X84147406Y-38762336D01*
X84146541Y-38764964D01*
X84127060Y-38820639D01*
X84124500Y-38835711D01*
X84124500Y-38894697D01*
X84124448Y-38897464D01*
X84122242Y-38956406D01*
X84124500Y-38973551D01*
X84124500Y-39883745D01*
X84112029Y-39924857D01*
X84078819Y-39952112D01*
X84036063Y-39956323D01*
X83998174Y-39936071D01*
X83872174Y-39810071D01*
X83856133Y-39786064D01*
X83850500Y-39757745D01*
X83850500Y-37667256D01*
X83856133Y-37638937D01*
X83872174Y-37614930D01*
X84714929Y-36772174D01*
X84738936Y-36756133D01*
X84767255Y-36750500D01*
X93852319Y-36750500D01*
X93852320Y-36750500D01*
X93896222Y-36741767D01*
X93946004Y-36708504D01*
X93979267Y-36658722D01*
X93988000Y-36614820D01*
X93988000Y-35985180D01*
X93979267Y-35941278D01*
X93946004Y-35891496D01*
X93896222Y-35858233D01*
X93852320Y-35849500D01*
X93852319Y-35849500D01*
X84579458Y-35849500D01*
X84571174Y-35849035D01*
X84570008Y-35848903D01*
X84532965Y-35844730D01*
X84532963Y-35844730D01*
X84475864Y-35855532D01*
X84473140Y-35855995D01*
X84414831Y-35864785D01*
X84400309Y-35869563D01*
X84348139Y-35897135D01*
X84345671Y-35898381D01*
X84292556Y-35923961D01*
X84280088Y-35932808D01*
X84238378Y-35974517D01*
X84236387Y-35976434D01*
X84193152Y-36016550D01*
X84182621Y-36030274D01*
X83102276Y-37110619D01*
X83096091Y-37116147D01*
X83066027Y-37140123D01*
X83033297Y-37188128D01*
X83031698Y-37190383D01*
X82996675Y-37237839D01*
X82989789Y-37251477D01*
X82972406Y-37307836D01*
X82971541Y-37310464D01*
X82952060Y-37366139D01*
X82949500Y-37381211D01*
X82949500Y-37440197D01*
X82949448Y-37442964D01*
X82947242Y-37501906D01*
X82949500Y-37519051D01*
X82949500Y-39945542D01*
X82949035Y-39953826D01*
X82944730Y-39992035D01*
X82955533Y-40049131D01*
X82955988Y-40051807D01*
X82961938Y-40091278D01*
X82964786Y-40110178D01*
X82969559Y-40124680D01*
X82969976Y-40125470D01*
X82969977Y-40125472D01*
X82988177Y-40159908D01*
X82997124Y-40176837D01*
X82998370Y-40179305D01*
X83023963Y-40232448D01*
X83032804Y-40244908D01*
X83074514Y-40286618D01*
X83076433Y-40288610D01*
X83114786Y-40329945D01*
X83116556Y-40331852D01*
X83130274Y-40342378D01*
X83665375Y-40877479D01*
X84199942Y-41412045D01*
X84199943Y-41412047D01*
X84249513Y-41461617D01*
X84251432Y-41463609D01*
X84289555Y-41504696D01*
X84291556Y-41506852D01*
X84305274Y-41517378D01*
X84395509Y-41607612D01*
X84503250Y-41715353D01*
X84503253Y-41715357D01*
X85235626Y-42447730D01*
X85241148Y-42453909D01*
X85265121Y-42483970D01*
X85265123Y-42483972D01*
X85313144Y-42516713D01*
X85315387Y-42518304D01*
X85325659Y-42525885D01*
X85362841Y-42553327D01*
X85376475Y-42560208D01*
X85377323Y-42560469D01*
X85377327Y-42560472D01*
X85432914Y-42577617D01*
X85435424Y-42578443D01*
X85490300Y-42597646D01*
X85490303Y-42597646D01*
X85491149Y-42597942D01*
X85506198Y-42600500D01*
X85507098Y-42600500D01*
X85565196Y-42600500D01*
X85567962Y-42600551D01*
X85626010Y-42602724D01*
X85626011Y-42602723D01*
X85626906Y-42602757D01*
X85644051Y-42600500D01*
X88078892Y-42600500D01*
X88116357Y-42610685D01*
X88143509Y-42638436D01*
X88152874Y-42676114D01*
X88141875Y-42713348D01*
X88115641Y-42755878D01*
X88060494Y-42922303D01*
X88050000Y-43025023D01*
X88050000Y-43300000D01*
X90049999Y-43300000D01*
X90049999Y-43025023D01*
X90039505Y-42922303D01*
X89984358Y-42755878D01*
X89958125Y-42713348D01*
X89947126Y-42676114D01*
X89956491Y-42638436D01*
X89983643Y-42610685D01*
X90021108Y-42600500D01*
X90282744Y-42600500D01*
X90311062Y-42606133D01*
X90335070Y-42622174D01*
X90408426Y-42695529D01*
X90427578Y-42728702D01*
X90427579Y-42767007D01*
X90408426Y-42800180D01*
X90371951Y-42836655D01*
X90346158Y-42887277D01*
X90314354Y-42949696D01*
X90314353Y-42949697D01*
X90314354Y-42949697D01*
X90299500Y-43043481D01*
X90299500Y-44056518D01*
X90314353Y-44150303D01*
X90371949Y-44263341D01*
X90469945Y-44361337D01*
X90469718Y-44361563D01*
X90488596Y-44379015D01*
X90499500Y-44417679D01*
X90499500Y-44782321D01*
X90488596Y-44820985D01*
X90469718Y-44838436D01*
X90469945Y-44838663D01*
X90371949Y-44936659D01*
X90314354Y-45049694D01*
X90299500Y-45143481D01*
X90299500Y-46156518D01*
X90314353Y-46250303D01*
X90371949Y-46363341D01*
X90469945Y-46461337D01*
X90469718Y-46461563D01*
X90488596Y-46479015D01*
X90499500Y-46517679D01*
X90499500Y-48640900D01*
X90497645Y-48657366D01*
X90495684Y-48665954D01*
X90498122Y-48698479D01*
X90499240Y-48713397D01*
X90499293Y-48714097D01*
X90499500Y-48719628D01*
X90499500Y-48733763D01*
X90501607Y-48747745D01*
X90502226Y-48753240D01*
X90505834Y-48801379D01*
X90509052Y-48809579D01*
X90513339Y-48825580D01*
X90514651Y-48834285D01*
X90535595Y-48877776D01*
X90537804Y-48882838D01*
X90555448Y-48927794D01*
X90560942Y-48934683D01*
X90569752Y-48948705D01*
X90573575Y-48956642D01*
X90591053Y-48975479D01*
X90606411Y-48992031D01*
X90610019Y-48996224D01*
X90626936Y-49017437D01*
X90640121Y-49033970D01*
X90647399Y-49038932D01*
X90659950Y-49049734D01*
X90665945Y-49056194D01*
X90665946Y-49056195D01*
X90707755Y-49080333D01*
X90712423Y-49083265D01*
X90743282Y-49104305D01*
X90752327Y-49110472D01*
X90760741Y-49113067D01*
X90775930Y-49119694D01*
X90783555Y-49124096D01*
X90830635Y-49134841D01*
X90835953Y-49136266D01*
X90882098Y-49150500D01*
X90890900Y-49150500D01*
X90907366Y-49152355D01*
X90915954Y-49154315D01*
X90964098Y-49150706D01*
X90969628Y-49150500D01*
X94100500Y-49150500D01*
X94137500Y-49160414D01*
X94164586Y-49187500D01*
X94174500Y-49224500D01*
X94174500Y-50025500D01*
X94164586Y-50062500D01*
X94137500Y-50089586D01*
X94100500Y-50099500D01*
X93435180Y-50099500D01*
X93391278Y-50108233D01*
X93341496Y-50141496D01*
X93308233Y-50191278D01*
X93299500Y-50235180D01*
X93299500Y-53764820D01*
X93308233Y-53808722D01*
X93341496Y-53858504D01*
X93391278Y-53891767D01*
X93435180Y-53900500D01*
X95814819Y-53900500D01*
X95814820Y-53900500D01*
X95858722Y-53891767D01*
X95908504Y-53858504D01*
X95941767Y-53808722D01*
X95950500Y-53764820D01*
X95950500Y-50235180D01*
X95941767Y-50191278D01*
X95908504Y-50141496D01*
X95858722Y-50108233D01*
X95814820Y-50099500D01*
X95814819Y-50099500D01*
X95149500Y-50099500D01*
X95112500Y-50089586D01*
X95085414Y-50062500D01*
X95075500Y-50025500D01*
X95075500Y-48759100D01*
X95077355Y-48742634D01*
X95079315Y-48734045D01*
X95075707Y-48685903D01*
X95075500Y-48680372D01*
X95075500Y-48666242D01*
X95075500Y-48666238D01*
X95073388Y-48652231D01*
X95072774Y-48646776D01*
X95069166Y-48598622D01*
X95065948Y-48590423D01*
X95061659Y-48574414D01*
X95060348Y-48565713D01*
X95039400Y-48522214D01*
X95037193Y-48517156D01*
X95019552Y-48472206D01*
X95014058Y-48465317D01*
X95005246Y-48451292D01*
X95003372Y-48447402D01*
X95001425Y-48443358D01*
X94991839Y-48433027D01*
X94968588Y-48407968D01*
X94964986Y-48403783D01*
X94934879Y-48366030D01*
X94930333Y-48362930D01*
X94927601Y-48361067D01*
X94915049Y-48350265D01*
X94909054Y-48343805D01*
X94867251Y-48319669D01*
X94862567Y-48316726D01*
X94829790Y-48294380D01*
X94822673Y-48289528D01*
X94814250Y-48286929D01*
X94799073Y-48280308D01*
X94791445Y-48275904D01*
X94791442Y-48275903D01*
X94791440Y-48275902D01*
X94744374Y-48265159D01*
X94739032Y-48263728D01*
X94692902Y-48249500D01*
X94684100Y-48249500D01*
X94667634Y-48247645D01*
X94659045Y-48245684D01*
X94613643Y-48249087D01*
X94610901Y-48249293D01*
X94605372Y-48249500D01*
X91474500Y-48249500D01*
X91437500Y-48239586D01*
X91410414Y-48212500D01*
X91400500Y-48175500D01*
X91400500Y-47108236D01*
X94345316Y-47108236D01*
X95211507Y-47974427D01*
X95291560Y-48039639D01*
X95448237Y-48118325D01*
X95618834Y-48158758D01*
X95794160Y-48158758D01*
X95964756Y-48118325D01*
X96121436Y-48039637D01*
X96201487Y-47974428D01*
X96316376Y-47859537D01*
X94955196Y-46498357D01*
X94345316Y-47108236D01*
X91400500Y-47108236D01*
X91400500Y-46517679D01*
X91411404Y-46479015D01*
X91430281Y-46461563D01*
X91430055Y-46461337D01*
X91447271Y-46444121D01*
X91528050Y-46363342D01*
X91585646Y-46250304D01*
X91600500Y-46156519D01*
X91600499Y-45481166D01*
X92941242Y-45481166D01*
X92981674Y-45651762D01*
X93060362Y-45808442D01*
X93125567Y-45888488D01*
X93991763Y-46754683D01*
X94601643Y-46144804D01*
X95308749Y-46144804D01*
X96669929Y-47505984D01*
X96784819Y-47391094D01*
X96850031Y-47311041D01*
X96928717Y-47154364D01*
X96969150Y-46983768D01*
X96969150Y-46808442D01*
X96928717Y-46637845D01*
X96850029Y-46481165D01*
X96784824Y-46401119D01*
X95918628Y-45534924D01*
X95308749Y-46144804D01*
X94601643Y-46144804D01*
X93240462Y-44783623D01*
X93125572Y-44898513D01*
X93060360Y-44978566D01*
X92981674Y-45135243D01*
X92941242Y-45305840D01*
X92941242Y-45481166D01*
X91600499Y-45481166D01*
X91600499Y-45143482D01*
X91585646Y-45049696D01*
X91528050Y-44936658D01*
X91438342Y-44846950D01*
X91438342Y-44846949D01*
X91430055Y-44838663D01*
X91430281Y-44838436D01*
X91411404Y-44820985D01*
X91400500Y-44782321D01*
X91400500Y-44430070D01*
X93594015Y-44430070D01*
X94955195Y-45791250D01*
X95565075Y-45181371D01*
X94698884Y-44315180D01*
X94618831Y-44249968D01*
X94462154Y-44171282D01*
X94291558Y-44130850D01*
X94116232Y-44130850D01*
X93945635Y-44171282D01*
X93788955Y-44249970D01*
X93708909Y-44315175D01*
X93594015Y-44430070D01*
X91400500Y-44430070D01*
X91400500Y-44417679D01*
X91411404Y-44379015D01*
X91430281Y-44361563D01*
X91430055Y-44361337D01*
X91447271Y-44344121D01*
X91528050Y-44263342D01*
X91585646Y-44150304D01*
X91600500Y-44056519D01*
X91600499Y-43043482D01*
X91585646Y-42949696D01*
X91528050Y-42836658D01*
X91438342Y-42746950D01*
X91438342Y-42746949D01*
X91430055Y-42738663D01*
X91430281Y-42738436D01*
X91411404Y-42720985D01*
X91400500Y-42682321D01*
X91400500Y-42629459D01*
X91400965Y-42621174D01*
X91405270Y-42582965D01*
X91399662Y-42553327D01*
X91394466Y-42525870D01*
X91394005Y-42523154D01*
X91385348Y-42465713D01*
X91385347Y-42465711D01*
X91385213Y-42464820D01*
X91380445Y-42450328D01*
X91380023Y-42449530D01*
X91380023Y-42449528D01*
X91352852Y-42398120D01*
X91351625Y-42395688D01*
X91326036Y-42342551D01*
X91317201Y-42330098D01*
X91275497Y-42288393D01*
X91273577Y-42286401D01*
X91234055Y-42243806D01*
X91234052Y-42243804D01*
X91233447Y-42243152D01*
X91219723Y-42232620D01*
X90839380Y-41852277D01*
X90833851Y-41846090D01*
X90825499Y-41835617D01*
X90809879Y-41816030D01*
X90801973Y-41810639D01*
X90773813Y-41773940D01*
X90772949Y-41727687D01*
X90799719Y-41689960D01*
X90843661Y-41675500D01*
X91707745Y-41675500D01*
X91736064Y-41681133D01*
X91760071Y-41697174D01*
X91848941Y-41786044D01*
X91848943Y-41786047D01*
X91898513Y-41835617D01*
X91900433Y-41837610D01*
X91940556Y-41880852D01*
X91954274Y-41891378D01*
X92062425Y-41999528D01*
X92178250Y-42115353D01*
X92178253Y-42115357D01*
X92360619Y-42297723D01*
X92366148Y-42303910D01*
X92390121Y-42333971D01*
X92438137Y-42366708D01*
X92440393Y-42368309D01*
X92487842Y-42403328D01*
X92501472Y-42410208D01*
X92502326Y-42410471D01*
X92502327Y-42410472D01*
X92547850Y-42424513D01*
X92557867Y-42427603D01*
X92560486Y-42428465D01*
X92579770Y-42435213D01*
X92616146Y-42447942D01*
X92631205Y-42450500D01*
X92632098Y-42450500D01*
X92690197Y-42450500D01*
X92692963Y-42450551D01*
X92751010Y-42452724D01*
X92751011Y-42452723D01*
X92751906Y-42452757D01*
X92769051Y-42450500D01*
X94545541Y-42450500D01*
X94553826Y-42450965D01*
X94592035Y-42455270D01*
X94600687Y-42453632D01*
X94617212Y-42452394D01*
X94626010Y-42452724D01*
X94663147Y-42442772D01*
X94671262Y-42441078D01*
X94709287Y-42435348D01*
X94709287Y-42435347D01*
X94710181Y-42435213D01*
X94724676Y-42430443D01*
X94725470Y-42430023D01*
X94725472Y-42430023D01*
X94733256Y-42425908D01*
X94748681Y-42419853D01*
X94757187Y-42417575D01*
X94758040Y-42417038D01*
X94797411Y-42405696D01*
X98485607Y-42405696D01*
X98513926Y-42411329D01*
X98537933Y-42427370D01*
X99635196Y-43524632D01*
X99712015Y-43580446D01*
X99770883Y-43599573D01*
X99832671Y-43619649D01*
X99832672Y-43619649D01*
X99959538Y-43619649D01*
X100076886Y-43581520D01*
X100117027Y-43579944D01*
X100152078Y-43599573D01*
X100727826Y-44175321D01*
X100743867Y-44199328D01*
X100749500Y-44227647D01*
X100749500Y-49832745D01*
X100743867Y-49861064D01*
X100727826Y-49885071D01*
X96585071Y-54027826D01*
X96561064Y-54043867D01*
X96532745Y-54049500D01*
X84717255Y-54049500D01*
X84688936Y-54043867D01*
X84664929Y-54027826D01*
X83914380Y-53277277D01*
X83908851Y-53271090D01*
X83905561Y-53266965D01*
X83884879Y-53241030D01*
X83836878Y-53208303D01*
X83834623Y-53206703D01*
X83787161Y-53171675D01*
X83773522Y-53164789D01*
X83717138Y-53147397D01*
X83714510Y-53146533D01*
X83658857Y-53127059D01*
X83643796Y-53124500D01*
X83642902Y-53124500D01*
X83584803Y-53124500D01*
X83582036Y-53124448D01*
X83523093Y-53122242D01*
X83505949Y-53124500D01*
X81241234Y-53124500D01*
X81140715Y-53139651D01*
X81033967Y-53191058D01*
X80993574Y-53197921D01*
X80955722Y-53182241D01*
X80932013Y-53148827D01*
X80929715Y-53107919D01*
X80949532Y-53072061D01*
X81530616Y-52490978D01*
X81586430Y-52414159D01*
X81625633Y-52293503D01*
X81625633Y-52166636D01*
X81586430Y-52045980D01*
X81560512Y-52010307D01*
X81547197Y-51977781D01*
X81550390Y-51942780D01*
X81551350Y-51939983D01*
X81552725Y-51930545D01*
X81550563Y-51878254D01*
X81550500Y-51875197D01*
X81550500Y-51378907D01*
X81562971Y-51337795D01*
X81596181Y-51310540D01*
X81638937Y-51306329D01*
X81676826Y-51326581D01*
X81906415Y-51556169D01*
X81926243Y-51571876D01*
X82031003Y-51612460D01*
X82143349Y-51612460D01*
X82248109Y-51571876D01*
X82248109Y-51571875D01*
X82248111Y-51571875D01*
X82267931Y-51556175D01*
X82267932Y-51556173D01*
X82267937Y-51556170D01*
X82291175Y-51532931D01*
X82324347Y-51513779D01*
X82362653Y-51513778D01*
X82395827Y-51532931D01*
X82870978Y-52008081D01*
X83319490Y-52456593D01*
X83342983Y-52473931D01*
X83351367Y-52481145D01*
X83802524Y-52932303D01*
X83879343Y-52988117D01*
X83913269Y-52999140D01*
X83999999Y-53027320D01*
X84000000Y-53027320D01*
X84126866Y-53027320D01*
X84126867Y-53027320D01*
X84156455Y-53017705D01*
X84247523Y-52988117D01*
X84324342Y-52932304D01*
X84722469Y-52534176D01*
X84778283Y-52457357D01*
X84817486Y-52336700D01*
X84817486Y-52209834D01*
X84814784Y-52201519D01*
X84792761Y-52133738D01*
X84778283Y-52089177D01*
X84722470Y-52012358D01*
X84006144Y-51296033D01*
X83949711Y-51255031D01*
X83922832Y-51218033D01*
X83922832Y-51172298D01*
X83949714Y-51135299D01*
X83993210Y-51121166D01*
X84647738Y-51121166D01*
X84676057Y-51126799D01*
X84700064Y-51142840D01*
X85146026Y-51588801D01*
X85222845Y-51644615D01*
X85267408Y-51659094D01*
X85343501Y-51683818D01*
X85482089Y-51683818D01*
X85482089Y-51684139D01*
X85507768Y-51683127D01*
X85542825Y-51702758D01*
X86137792Y-52297725D01*
X86143314Y-52303904D01*
X86167291Y-52333970D01*
X86167293Y-52333972D01*
X86215307Y-52366708D01*
X86217563Y-52368309D01*
X86265012Y-52403328D01*
X86278642Y-52410208D01*
X86279496Y-52410471D01*
X86279497Y-52410472D01*
X86291451Y-52414159D01*
X86335037Y-52427603D01*
X86337656Y-52428465D01*
X86392471Y-52447646D01*
X86393317Y-52447942D01*
X86408368Y-52450500D01*
X86409268Y-52450500D01*
X86467350Y-52450500D01*
X86470117Y-52450552D01*
X86477272Y-52450819D01*
X86528180Y-52452725D01*
X86528181Y-52452724D01*
X86529072Y-52452758D01*
X86546226Y-52450500D01*
X87175500Y-52450500D01*
X87212500Y-52460414D01*
X87239586Y-52487500D01*
X87249500Y-52524500D01*
X87249500Y-53764820D01*
X87258233Y-53808722D01*
X87291496Y-53858504D01*
X87341278Y-53891767D01*
X87385180Y-53900500D01*
X89764819Y-53900500D01*
X89764820Y-53900500D01*
X89808722Y-53891767D01*
X89858504Y-53858504D01*
X89891767Y-53808722D01*
X89900500Y-53764820D01*
X89900500Y-50235180D01*
X89891767Y-50191278D01*
X89858504Y-50141496D01*
X89808722Y-50108233D01*
X89764820Y-50099500D01*
X87385180Y-50099500D01*
X87341278Y-50108233D01*
X87291496Y-50141496D01*
X87258233Y-50191278D01*
X87250538Y-50229965D01*
X87249500Y-50235181D01*
X87249500Y-51475500D01*
X87239586Y-51512500D01*
X87212500Y-51539586D01*
X87175500Y-51549500D01*
X86694426Y-51549500D01*
X86666107Y-51543867D01*
X86642100Y-51527826D01*
X86179929Y-51065655D01*
X86160299Y-51030602D01*
X86161309Y-51004919D01*
X86160988Y-51004919D01*
X86160988Y-50866331D01*
X86137262Y-50793309D01*
X86121785Y-50745675D01*
X86089772Y-50701613D01*
X86065973Y-50668857D01*
X85349646Y-49952531D01*
X85320777Y-49931556D01*
X85272827Y-49896717D01*
X85272825Y-49896716D01*
X85152171Y-49857514D01*
X85152170Y-49857514D01*
X85025304Y-49857514D01*
X85025303Y-49857514D01*
X84904646Y-49896717D01*
X84827829Y-49952528D01*
X84429697Y-50350661D01*
X84401360Y-50389663D01*
X84375089Y-50412101D01*
X84341494Y-50420166D01*
X84096500Y-50420166D01*
X84068181Y-50414533D01*
X84044174Y-50398492D01*
X84020336Y-50374654D01*
X83999698Y-50334668D01*
X84006039Y-50290120D01*
X84037014Y-50257480D01*
X84080943Y-50233331D01*
X84109044Y-50209330D01*
X84926666Y-49391708D01*
X84950667Y-49363607D01*
X85029787Y-49219689D01*
X85070628Y-49060622D01*
X85070628Y-48896394D01*
X85029787Y-48737326D01*
X84950667Y-48593410D01*
X84949045Y-48591510D01*
X84004495Y-49536060D01*
X83971322Y-49555213D01*
X83933016Y-49555213D01*
X83899843Y-49536060D01*
X83650942Y-49287159D01*
X83631789Y-49253986D01*
X83631789Y-49215680D01*
X83650942Y-49182507D01*
X84595492Y-48237956D01*
X84593596Y-48236337D01*
X84449677Y-48157216D01*
X84290610Y-48116376D01*
X84126383Y-48116376D01*
X84053544Y-48135076D01*
X84015616Y-48134777D01*
X83982817Y-48115726D01*
X83717509Y-47850419D01*
X83717506Y-47850416D01*
X83697678Y-47834709D01*
X83697676Y-47834708D01*
X83592918Y-47794125D01*
X83480572Y-47794125D01*
X83468798Y-47798686D01*
X83426792Y-47802088D01*
X83389741Y-47782007D01*
X83369661Y-47744954D01*
X83373065Y-47702950D01*
X83377626Y-47691179D01*
X83377626Y-47578833D01*
X83337042Y-47474073D01*
X83337041Y-47474070D01*
X83321340Y-47454249D01*
X83045758Y-47178668D01*
X83045755Y-47178665D01*
X83025927Y-47162958D01*
X83025925Y-47162957D01*
X82921167Y-47122374D01*
X82808821Y-47122374D01*
X82704058Y-47162958D01*
X82684237Y-47178659D01*
X82590283Y-47272613D01*
X82557109Y-47291766D01*
X82518804Y-47291765D01*
X82485631Y-47272613D01*
X82290558Y-47077540D01*
X82271405Y-47044366D01*
X82271406Y-47006061D01*
X82290559Y-46972888D01*
X82339882Y-46923565D01*
X82339882Y-46923564D01*
X82339886Y-46923561D01*
X82395700Y-46846742D01*
X82434903Y-46726085D01*
X82434903Y-46599219D01*
X82395700Y-46478562D01*
X82339887Y-46401743D01*
X81941759Y-46003616D01*
X81864940Y-45947802D01*
X81864938Y-45947801D01*
X81744284Y-45908599D01*
X81744283Y-45908599D01*
X81617417Y-45908599D01*
X81617416Y-45908599D01*
X81496759Y-45947802D01*
X81419942Y-46003613D01*
X80703616Y-46719940D01*
X80647801Y-46796761D01*
X80608599Y-46917416D01*
X80608599Y-47044284D01*
X80642391Y-47148286D01*
X80643968Y-47188428D01*
X80624339Y-47223479D01*
X80448479Y-47399339D01*
X80413428Y-47418968D01*
X80373286Y-47417391D01*
X80269284Y-47383599D01*
X80269283Y-47383599D01*
X80142417Y-47383599D01*
X80142416Y-47383599D01*
X80021759Y-47422802D01*
X79944942Y-47478613D01*
X79228616Y-48194940D01*
X79172801Y-48271761D01*
X79133599Y-48392416D01*
X79133599Y-48519284D01*
X79167391Y-48623286D01*
X79168968Y-48663428D01*
X79149339Y-48698479D01*
X78973479Y-48874339D01*
X78938428Y-48893968D01*
X78898286Y-48892391D01*
X78794284Y-48858599D01*
X78794283Y-48858599D01*
X78667417Y-48858599D01*
X78667416Y-48858599D01*
X78546759Y-48897802D01*
X78469942Y-48953613D01*
X77753616Y-49669940D01*
X77697801Y-49746761D01*
X77658599Y-49867416D01*
X77658599Y-49900500D01*
X77648685Y-49937500D01*
X77621599Y-49964586D01*
X77584599Y-49974500D01*
X77342255Y-49974500D01*
X77313936Y-49968867D01*
X77289929Y-49952826D01*
X77146438Y-49809335D01*
X77127148Y-49775641D01*
X77127572Y-49736819D01*
X77147592Y-49703554D01*
X77181699Y-49685004D01*
X77327409Y-49650470D01*
X77484086Y-49571784D01*
X77564139Y-49506572D01*
X78306571Y-48764139D01*
X78371784Y-48684087D01*
X78450469Y-48527410D01*
X78490902Y-48356813D01*
X78490902Y-48289902D01*
X78500816Y-48252902D01*
X78527902Y-48225816D01*
X78564902Y-48215902D01*
X78631813Y-48215902D01*
X78802410Y-48175469D01*
X78959086Y-48096784D01*
X79039139Y-48031572D01*
X79781571Y-47289139D01*
X79846784Y-47209087D01*
X79925469Y-47052410D01*
X79965902Y-46881813D01*
X79965902Y-46814902D01*
X79975816Y-46777902D01*
X80002902Y-46750816D01*
X80039902Y-46740902D01*
X80106813Y-46740902D01*
X80277410Y-46700469D01*
X80434086Y-46621784D01*
X80514139Y-46556572D01*
X81170710Y-45900000D01*
X88050001Y-45900000D01*
X88050001Y-46174977D01*
X88060494Y-46277696D01*
X88115641Y-46444121D01*
X88207683Y-46593344D01*
X88331655Y-46717316D01*
X88480878Y-46809358D01*
X88647303Y-46864505D01*
X88750023Y-46875000D01*
X88800000Y-46875000D01*
X88800000Y-45900000D01*
X89300000Y-45900000D01*
X89300000Y-46874999D01*
X89349977Y-46874999D01*
X89452696Y-46864505D01*
X89619121Y-46809358D01*
X89768344Y-46717316D01*
X89892316Y-46593344D01*
X89984358Y-46444121D01*
X90039505Y-46277696D01*
X90050000Y-46174977D01*
X90050000Y-45900000D01*
X89300000Y-45900000D01*
X88800000Y-45900000D01*
X88050001Y-45900000D01*
X81170710Y-45900000D01*
X81256571Y-45814139D01*
X81321784Y-45734087D01*
X81400469Y-45577410D01*
X81440902Y-45406813D01*
X81440902Y-45400000D01*
X88050000Y-45400000D01*
X88800000Y-45400000D01*
X88800000Y-43800000D01*
X89300000Y-43800000D01*
X89300000Y-45400000D01*
X90049999Y-45400000D01*
X90049999Y-45125023D01*
X90039505Y-45022303D01*
X89984358Y-44855878D01*
X89892316Y-44706655D01*
X89837987Y-44652326D01*
X89818834Y-44619153D01*
X89818834Y-44580847D01*
X89837987Y-44547674D01*
X89892316Y-44493344D01*
X89984358Y-44344121D01*
X90039505Y-44177696D01*
X90050000Y-44074977D01*
X90050000Y-43800000D01*
X89300000Y-43800000D01*
X88800000Y-43800000D01*
X88050001Y-43800000D01*
X88050001Y-44074977D01*
X88060494Y-44177696D01*
X88115641Y-44344121D01*
X88207683Y-44493344D01*
X88262013Y-44547674D01*
X88281166Y-44580847D01*
X88281166Y-44619153D01*
X88262013Y-44652326D01*
X88207683Y-44706655D01*
X88115641Y-44855878D01*
X88060494Y-45022303D01*
X88050000Y-45125023D01*
X88050000Y-45400000D01*
X81440902Y-45400000D01*
X81440902Y-45231487D01*
X81400469Y-45060889D01*
X81321784Y-44904213D01*
X81256572Y-44824160D01*
X81221231Y-44788819D01*
X80178249Y-45831802D01*
X77280575Y-48729476D01*
X77247402Y-48748629D01*
X77209096Y-48748629D01*
X77175923Y-48729476D01*
X76927022Y-48480575D01*
X76907869Y-48447402D01*
X76907869Y-48409096D01*
X76927022Y-48375923D01*
X78349696Y-46953249D01*
X77819365Y-46422918D01*
X77624926Y-46617358D01*
X77559713Y-46697410D01*
X77481028Y-46854087D01*
X77440596Y-47024685D01*
X77440596Y-47091596D01*
X77430682Y-47128596D01*
X77403596Y-47155682D01*
X77366596Y-47165596D01*
X77299685Y-47165596D01*
X77129087Y-47206028D01*
X76972411Y-47284713D01*
X76892358Y-47349925D01*
X76176826Y-48065459D01*
X76138937Y-48085711D01*
X76096181Y-48081500D01*
X76062971Y-48054245D01*
X76050500Y-48013133D01*
X76050500Y-46069365D01*
X78172918Y-46069365D01*
X78703249Y-46599696D01*
X79824696Y-45478249D01*
X79294365Y-44947918D01*
X79099926Y-45142358D01*
X79034713Y-45222410D01*
X78956028Y-45379087D01*
X78915596Y-45549685D01*
X78915596Y-45616596D01*
X78905682Y-45653596D01*
X78878596Y-45680682D01*
X78841596Y-45690596D01*
X78774685Y-45690596D01*
X78604087Y-45731028D01*
X78447411Y-45809713D01*
X78367358Y-45874925D01*
X78172918Y-46069365D01*
X76050500Y-46069365D01*
X76050500Y-44594365D01*
X79647918Y-44594365D01*
X80178248Y-45124695D01*
X80867678Y-44435266D01*
X80832337Y-44399926D01*
X80752285Y-44334713D01*
X80595608Y-44256028D01*
X80425011Y-44215596D01*
X80249685Y-44215596D01*
X80079087Y-44256028D01*
X79922411Y-44334713D01*
X79842358Y-44399925D01*
X79647918Y-44594365D01*
X76050500Y-44594365D01*
X76050500Y-36474459D01*
X76050965Y-36466174D01*
X76055270Y-36427965D01*
X76045811Y-36377975D01*
X76044466Y-36370870D01*
X76044005Y-36368154D01*
X76043229Y-36363004D01*
X76035348Y-36310713D01*
X76035347Y-36310711D01*
X76035213Y-36309820D01*
X76030444Y-36295324D01*
X76002875Y-36243163D01*
X76001627Y-36240692D01*
X75976425Y-36188358D01*
X75976423Y-36188356D01*
X75976035Y-36187550D01*
X75967197Y-36175093D01*
X75925484Y-36133380D01*
X75923564Y-36131387D01*
X75883445Y-36088149D01*
X75869725Y-36077621D01*
X74827174Y-35035071D01*
X74811133Y-35011064D01*
X74805500Y-34982745D01*
X74805500Y-34385181D01*
X74804643Y-34380873D01*
X74796767Y-34341278D01*
X74763504Y-34291496D01*
X74713722Y-34258233D01*
X74669820Y-34249500D01*
X73140180Y-34249500D01*
X73096278Y-34258232D01*
X73096278Y-34258233D01*
X73046496Y-34291496D01*
X73013233Y-34341278D01*
X73004500Y-34385181D01*
X73004500Y-34839337D01*
X72991767Y-34880838D01*
X72957950Y-34908057D01*
X72914687Y-34911628D01*
X72876866Y-34890320D01*
X72822691Y-34833328D01*
X72767325Y-34775082D01*
X72682210Y-34715841D01*
X72608658Y-34664647D01*
X72431012Y-34588413D01*
X72312969Y-34564155D01*
X72241657Y-34549500D01*
X72241656Y-34549500D01*
X72096794Y-34549500D01*
X72096790Y-34549500D01*
X71952682Y-34564154D01*
X71918081Y-34575010D01*
X71869789Y-34573632D01*
X71832638Y-34542747D01*
X71822464Y-34495519D01*
X71843602Y-34452078D01*
X72466715Y-33828965D01*
X72478561Y-33819346D01*
X72490669Y-33811437D01*
X72510399Y-33786085D01*
X72516467Y-33779214D01*
X72518375Y-33777307D01*
X72530169Y-33760785D01*
X72531970Y-33758371D01*
X72570104Y-33709378D01*
X72570976Y-33710057D01*
X72584084Y-33691370D01*
X72621949Y-33675499D01*
X72662447Y-33682254D01*
X72693110Y-33709557D01*
X72704500Y-33749003D01*
X72704500Y-33864820D01*
X72713233Y-33908722D01*
X72746496Y-33958504D01*
X72796278Y-33991767D01*
X72840180Y-34000500D01*
X73669819Y-34000500D01*
X73669820Y-34000500D01*
X73713722Y-33991767D01*
X73763504Y-33958504D01*
X73796767Y-33908722D01*
X73805500Y-33864820D01*
X73805500Y-32866987D01*
X78486565Y-32866987D01*
X78711468Y-33030390D01*
X78976108Y-33175877D01*
X79256897Y-33287048D01*
X79549397Y-33362150D01*
X79849001Y-33400000D01*
X80150999Y-33400000D01*
X80450602Y-33362150D01*
X80743102Y-33287048D01*
X81023891Y-33175877D01*
X81288531Y-33030390D01*
X81513433Y-32866987D01*
X80000000Y-31353553D01*
X78486565Y-32866987D01*
X73805500Y-32866987D01*
X73805500Y-32835180D01*
X73796767Y-32791278D01*
X73763504Y-32741496D01*
X73713722Y-32708233D01*
X73669820Y-32699500D01*
X72874500Y-32699500D01*
X72837500Y-32689586D01*
X72810414Y-32662500D01*
X72800500Y-32625500D01*
X72800500Y-32433677D01*
X72806133Y-32405358D01*
X72822174Y-32381351D01*
X74203526Y-30999999D01*
X77595255Y-30999999D01*
X77614216Y-31301396D01*
X77670803Y-31598032D01*
X77764125Y-31885246D01*
X77892706Y-32158496D01*
X78054516Y-32413469D01*
X78135312Y-32511133D01*
X79646447Y-31000000D01*
X80353553Y-31000000D01*
X81864686Y-32511133D01*
X81945482Y-32413468D01*
X82107293Y-32158496D01*
X82235874Y-31885246D01*
X82329196Y-31598032D01*
X82385783Y-31301396D01*
X82404744Y-30999999D01*
X97595255Y-30999999D01*
X97614216Y-31301396D01*
X97670803Y-31598032D01*
X97764125Y-31885246D01*
X97892706Y-32158496D01*
X98054516Y-32413469D01*
X98135312Y-32511133D01*
X99646447Y-31000000D01*
X100353553Y-31000000D01*
X101864686Y-32511133D01*
X101945482Y-32413468D01*
X102107293Y-32158496D01*
X102235874Y-31885246D01*
X102329196Y-31598032D01*
X102385783Y-31301396D01*
X102404744Y-30999999D01*
X102385783Y-30698603D01*
X102329196Y-30401967D01*
X102235874Y-30114753D01*
X102107293Y-29841503D01*
X101945483Y-29586531D01*
X101864686Y-29488865D01*
X100353553Y-31000000D01*
X99646447Y-31000000D01*
X98135312Y-29488865D01*
X98135311Y-29488865D01*
X98054519Y-29586526D01*
X97892706Y-29841503D01*
X97764125Y-30114753D01*
X97670803Y-30401967D01*
X97614216Y-30698603D01*
X97595255Y-30999999D01*
X82404744Y-30999999D01*
X82385783Y-30698603D01*
X82329196Y-30401967D01*
X82235874Y-30114753D01*
X82107293Y-29841503D01*
X81945483Y-29586531D01*
X81864686Y-29488865D01*
X80353553Y-31000000D01*
X79646447Y-31000000D01*
X78135312Y-29488865D01*
X78135311Y-29488865D01*
X78054519Y-29586526D01*
X77892706Y-29841503D01*
X77764125Y-30114753D01*
X77670803Y-30401967D01*
X77614216Y-30698603D01*
X77595255Y-30999999D01*
X74203526Y-30999999D01*
X76070514Y-29133011D01*
X78486565Y-29133011D01*
X79999999Y-30646446D01*
X81513433Y-29133011D01*
X98486565Y-29133011D01*
X99999999Y-30646446D01*
X101513433Y-29133011D01*
X101288531Y-28969609D01*
X101023891Y-28824122D01*
X100743102Y-28712951D01*
X100450602Y-28637849D01*
X100150999Y-28600000D01*
X99849001Y-28600000D01*
X99549397Y-28637849D01*
X99256897Y-28712951D01*
X98976108Y-28824122D01*
X98711468Y-28969609D01*
X98486565Y-29133011D01*
X81513433Y-29133011D01*
X81288531Y-28969609D01*
X81023891Y-28824122D01*
X80743102Y-28712951D01*
X80450602Y-28637849D01*
X80150999Y-28600000D01*
X79849001Y-28600000D01*
X79549397Y-28637849D01*
X79256897Y-28712951D01*
X78976108Y-28824122D01*
X78711468Y-28969609D01*
X78486565Y-29133011D01*
X76070514Y-29133011D01*
X79331350Y-25872174D01*
X79355357Y-25856133D01*
X79383676Y-25850500D01*
X82989336Y-25850500D01*
X82991861Y-25850542D01*
X83056826Y-25852762D01*
X83099233Y-25842426D01*
X83106659Y-25841015D01*
X83149920Y-25835070D01*
X83170304Y-25826214D01*
X83182262Y-25822194D01*
X83190824Y-25820107D01*
X83203852Y-25816933D01*
X83241912Y-25795532D01*
X83248677Y-25792172D01*
X83288720Y-25774780D01*
X83305961Y-25760752D01*
X83316383Y-25753659D01*
X83335759Y-25742766D01*
X83366636Y-25711888D01*
X83372254Y-25706819D01*
X83406107Y-25679279D01*
X83406108Y-25679278D01*
X83418923Y-25661122D01*
X83427046Y-25651477D01*
X85014273Y-24064250D01*
X85057775Y-24043105D01*
X85105045Y-24053349D01*
X85131375Y-24069361D01*
X85394942Y-24183844D01*
X85579408Y-24235528D01*
X85671641Y-24261371D01*
X85813982Y-24280935D01*
X85956322Y-24300500D01*
X86243677Y-24300500D01*
X86243678Y-24300500D01*
X86528358Y-24261371D01*
X86805058Y-24183844D01*
X86991677Y-24102784D01*
X92350769Y-24102784D01*
X92584624Y-24272690D01*
X92854777Y-24421208D01*
X93141414Y-24534695D01*
X93440009Y-24611362D01*
X93745855Y-24650000D01*
X94054145Y-24650000D01*
X94359990Y-24611362D01*
X94658585Y-24534695D01*
X94945222Y-24421208D01*
X95215375Y-24272690D01*
X95449229Y-24102784D01*
X93900000Y-22553553D01*
X92350769Y-24102784D01*
X86991677Y-24102784D01*
X87068625Y-24069361D01*
X87314147Y-23920055D01*
X87537053Y-23738708D01*
X87733189Y-23528698D01*
X87898901Y-23293936D01*
X88031104Y-23038797D01*
X88127334Y-22768032D01*
X88185798Y-22486686D01*
X88205408Y-22200000D01*
X88205408Y-22199999D01*
X91445156Y-22199999D01*
X91464512Y-22507676D01*
X91522278Y-22810492D01*
X91617544Y-23103688D01*
X91748804Y-23382631D01*
X91913985Y-23642915D01*
X91999799Y-23746645D01*
X93546446Y-22200000D01*
X94253553Y-22200000D01*
X95800199Y-23746645D01*
X95886013Y-23642915D01*
X96051195Y-23382631D01*
X96182455Y-23103688D01*
X96277721Y-22810492D01*
X96335487Y-22507676D01*
X96354843Y-22199999D01*
X96335487Y-21892323D01*
X96277721Y-21589507D01*
X96182455Y-21296311D01*
X96051195Y-21017368D01*
X95886014Y-20757084D01*
X95800199Y-20653353D01*
X94253553Y-22200000D01*
X93546446Y-22200000D01*
X91999799Y-20653353D01*
X91913985Y-20757083D01*
X91748804Y-21017368D01*
X91617544Y-21296311D01*
X91522278Y-21589507D01*
X91464512Y-21892323D01*
X91445156Y-22199999D01*
X88205408Y-22199999D01*
X88185798Y-21913314D01*
X88127334Y-21631968D01*
X88031104Y-21361203D01*
X87898901Y-21106064D01*
X87733189Y-20871302D01*
X87537053Y-20661292D01*
X87314147Y-20479945D01*
X87314146Y-20479944D01*
X87068628Y-20330641D01*
X87068629Y-20330641D01*
X87068625Y-20330639D01*
X86991675Y-20297215D01*
X92350769Y-20297215D01*
X93899999Y-21846445D01*
X95449229Y-20297214D01*
X95215375Y-20127309D01*
X94945222Y-19978791D01*
X94658585Y-19865304D01*
X94359990Y-19788637D01*
X94054145Y-19750000D01*
X93745855Y-19750000D01*
X93440009Y-19788637D01*
X93141414Y-19865304D01*
X92854777Y-19978791D01*
X92584625Y-20127309D01*
X92350769Y-20297215D01*
X86991675Y-20297215D01*
X86805058Y-20216156D01*
X86805056Y-20216155D01*
X86805055Y-20216155D01*
X86528358Y-20138628D01*
X86278077Y-20104228D01*
X86243678Y-20099500D01*
X85956322Y-20099500D01*
X85925630Y-20103718D01*
X85671641Y-20138628D01*
X85394944Y-20216155D01*
X85394941Y-20216156D01*
X85394942Y-20216156D01*
X85131375Y-20330639D01*
X85131373Y-20330639D01*
X85131371Y-20330641D01*
X84885853Y-20479944D01*
X84662947Y-20661291D01*
X84466810Y-20871302D01*
X84301097Y-21106066D01*
X84168896Y-21361202D01*
X84072666Y-21631966D01*
X84014201Y-21913316D01*
X83994591Y-22199999D01*
X84014201Y-22486683D01*
X84072666Y-22768033D01*
X84168896Y-23038797D01*
X84251078Y-23197401D01*
X84258503Y-23242772D01*
X84237701Y-23283772D01*
X82793649Y-24727826D01*
X82769642Y-24743867D01*
X82741323Y-24749500D01*
X79135664Y-24749500D01*
X79133138Y-24749457D01*
X79068173Y-24747238D01*
X79068171Y-24747238D01*
X79025774Y-24757569D01*
X79018333Y-24758984D01*
X78975078Y-24764930D01*
X78954694Y-24773784D01*
X78942735Y-24777806D01*
X78921144Y-24783067D01*
X78883095Y-24804460D01*
X78876315Y-24807828D01*
X78836280Y-24825219D01*
X78819043Y-24839243D01*
X78808612Y-24846342D01*
X78789241Y-24857233D01*
X78758376Y-24888098D01*
X78752753Y-24893173D01*
X78718890Y-24920723D01*
X78706073Y-24938880D01*
X78697945Y-24948529D01*
X71868273Y-31778200D01*
X71866457Y-31779955D01*
X71818955Y-31824319D01*
X71796276Y-31861613D01*
X71792015Y-31867874D01*
X71765638Y-31902658D01*
X71757483Y-31923336D01*
X71751873Y-31934630D01*
X71740328Y-31953615D01*
X71733267Y-31978817D01*
X71728548Y-31995656D01*
X71726139Y-32002821D01*
X71710124Y-32043436D01*
X71710123Y-32043437D01*
X71710123Y-32043440D01*
X71707849Y-32065543D01*
X71705495Y-32077928D01*
X71699500Y-32099331D01*
X71699500Y-32142982D01*
X71699112Y-32150549D01*
X71694648Y-32193971D01*
X71698424Y-32215872D01*
X71699500Y-32228445D01*
X71699500Y-32716050D01*
X71684937Y-32760132D01*
X71646981Y-32786864D01*
X71600569Y-32785724D01*
X71563971Y-32757161D01*
X71553504Y-32741496D01*
X71528645Y-32724886D01*
X71503722Y-32708233D01*
X71459820Y-32699500D01*
X71459819Y-32699500D01*
X71074639Y-32699500D01*
X71032497Y-32686328D01*
X71005358Y-32651502D01*
X71002882Y-32607419D01*
X71004128Y-32602477D01*
X71202798Y-31814032D01*
X71203681Y-31810833D01*
X71267582Y-31598032D01*
X71454409Y-30975867D01*
X71455413Y-30972777D01*
X71743349Y-30149906D01*
X71744482Y-30146884D01*
X72069077Y-29337679D01*
X72070341Y-29334725D01*
X72430887Y-28540959D01*
X72432304Y-28538019D01*
X72828073Y-27761278D01*
X72829629Y-27758384D01*
X73259878Y-27000130D01*
X73261544Y-26997342D01*
X73725366Y-26259173D01*
X73727187Y-26256415D01*
X74223650Y-25539811D01*
X74225549Y-25537198D01*
X74753688Y-24843559D01*
X74755717Y-24841014D01*
X75314452Y-24171758D01*
X75316567Y-24169337D01*
X75904766Y-23525822D01*
X75907018Y-23523467D01*
X76523467Y-22907018D01*
X76525822Y-22904766D01*
X77169337Y-22316567D01*
X77171758Y-22314452D01*
X77841014Y-21755717D01*
X77843559Y-21753688D01*
X78537198Y-21225549D01*
X78539811Y-21223650D01*
X79256428Y-20727177D01*
X79259173Y-20725366D01*
X79997342Y-20261544D01*
X80000130Y-20259878D01*
X80758384Y-19829629D01*
X80761278Y-19828073D01*
X81303448Y-19551824D01*
X81538035Y-19432296D01*
X81540959Y-19430887D01*
X82334725Y-19070341D01*
X82337679Y-19069077D01*
X83146884Y-18744482D01*
X83149906Y-18743349D01*
X83972777Y-18455413D01*
X83975867Y-18454409D01*
X84810835Y-18203680D01*
X84814034Y-18202798D01*
X85659368Y-17989792D01*
X85662546Y-17989066D01*
X86516651Y-17814188D01*
X86519823Y-17813612D01*
X87380896Y-17677231D01*
X87384140Y-17676792D01*
X88250460Y-17579181D01*
X88253729Y-17578887D01*
X89123534Y-17520244D01*
X89126784Y-17520098D01*
X89998351Y-17500537D01*
X90001649Y-17500537D01*
X90873213Y-17520098D01*
G37*
%TD.AperFunction*%
%TD*%
M02*
